<svg xmlns="http://www.w3.org/2000/svg" width="195" height="286" fill="none"><path fill="#CE3F8F" d="m75.817 236.273 9.652 19.8H26.777l9.6-19.8h-9.6l9.785-20.18h39.069l9.838 20.18h-9.652z"/><path fill="#6D3AC6" d="M37.001 256.072h38.246v10.324c0 10.555-8.573 19.128-19.127 19.128-10.555 0-19.128-8.573-19.128-19.128v-10.324h.009z"/><path fill="#CE3F8F" d="m156.532 236.275 9.661 19.8h-58.701l9.599-19.8h-9.599l9.785-20.18h39.069l9.847 20.18h-9.661z"/><path fill="#6D3AC6" d="M117.716 256.074h38.246v10.325c0 10.554-8.573 19.127-19.128 19.127-10.554 0-19.127-8.573-19.127-19.127v-10.325h.009z"/><path fill="#FD0" d="m155.148 194.372 14.748 21.719H23.078l14.677-21.764H23.078l14.677-22.055h-9.784l9.784-21.968 39.087 5.698 78.306-.221 9.696 16.491h-9.732l.036.044 14.748 22.011h-14.784l.036.045z"/><path fill="#000" d="m34.594 177.025 8.06 7.582 13.695-12.917 13.306 13.209 13.59-12.917 13.597 12.917 13.307-13.209 13.598 12.917 13.695-13.014 2.539 2.53 8.723 8.237 8.113-7.538 3.15 4.689-11.166 11.165-.07-.071-11.484-11.386-13.598 13.598-13.598-13.598-13.598 13.598-13.306-13.297-13.598 12.908-13.2-13.112-13.598 13.598-11.368-11.067"/><path fill="#6D3AC6" d="M37.743 150.307c0-6.247-1.142-14.474-4.079-19.172-3.91-6.264-10.953-10.564-24.648-10.661l-.194 7.83c4.892-.195 9.59.292 13.598 2.84 3.423 2.15 6.263 5.671 8.413 11.545-11.935-4.105-18.782-2.84-23.577.292-2.54 1.663-4.504 3.716-6.361 5.963l5.379 4.99c.292-.487.68-.885.982-1.274 5.865-6.945 12.616-6.75 19.764-2.937-15.553 7.431-18.004 20.543-17.216 30.036.68.097 7.626 0 7.626 0-.681-9.193 4.892-21.826 18.587-25.551l1.726-3.901z"/><path fill="#1DB9D2" d="m159.962 155.88-82.985.115 7.325-22.719h-7.255l7.255-19.561h68.361l7.299 19.658h-7.299l7.299 22.507z"/><path fill="#FD0" d="m163.004 113.821-87.754.098L89.6 84.467h-9.74l14.438-28.364 68.706 15.058v42.66z"/><path fill="#CE3F8F" d="M163 113.82V71.168s25.258 5.689 30.691 19.747c.389 1.017.557 2.105.557 3.194C195.265 113.236 163 113.82 163 113.82z"/><path fill="#008599" d="M141.473 66.444c22.984-31.894 34.353-47.66 25.258-55.392-5.963-5.087-14.748-.787-27.859 8.998-.487 10.466-2.256 24.842-5.583 44.598l8.184 1.796z"/><path fill="#1DB9D2" d="M131.893.685c-12.421-3.034-19.596 16.872-37.6 55.418l40.051 8.777c3.326-19.765 5.158-34.212 5.087-45.412.486-11.254-1.469-17.314-7.529-18.783h-.009z"/><path fill="#fff" d="M136.31 95.147a9.2 9.2 0 0 0 9.201-9.2 9.201 9.201 0 1 0-9.201 9.201z"/><path fill="#000" d="M136.317 90.395a4.45 4.45 0 1 0 0-8.9 4.45 4.45 0 0 0 0 8.9zm26.685 21.78v1.636h-5.22l-11.298-4.883c-.876-.345-2.017-1.619-1.539-2.539.283-.567 1.415-1.239 3.238-.522l14.819 6.308z"/></svg>